<?xml version="1.0" encoding="UTF-8"?>
<svg width="77px" height="77px" viewBox="0 0 77 77" version="1.1" xmlns="http://www.w3.org/2000/svg" xmlns:xlink="http://www.w3.org/1999/xlink">
    <!-- Generator: Sketch 48.2 (47327) - http://www.bohemiancoding.com/sketch -->
    <title>set-lunch-logo</title>
    <desc>Created with Sketch.</desc>
    <defs>
        <filter x="-14.6%" y="-10.0%" width="129.2%" height="128.0%" filterUnits="objectBoundingBox" id="filter-1">
            <feOffset dx="0" dy="2" in="SourceAlpha" result="shadowOffsetOuter1"></feOffset>
            <feGaussianBlur stdDeviation="2" in="shadowOffsetOuter1" result="shadowBlurOuter1"></feGaussianBlur>
            <feColorMatrix values="0 0 0 0 0   0 0 0 0 0   0 0 0 0 0  0 0 0 0.15 0" type="matrix" in="shadowBlurOuter1" result="shadowMatrixOuter1"></feColorMatrix>
            <feMerge>
                <feMergeNode in="shadowMatrixOuter1"></feMergeNode>
                <feMergeNode in="SourceGraphic"></feMergeNode>
            </feMerge>
        </filter>
        <linearGradient x1="50%" y1="68.9440542%" x2="94.5753607%" y2="95.2591755%" id="linearGradient-2">
            <stop stop-color="#DEDDDD" offset="0%"></stop>
            <stop stop-color="#FFFFFF" offset="100%"></stop>
        </linearGradient>
    </defs>
    <g id="首頁" stroke="none" stroke-width="1" fill="none" fill-rule="evenodd" transform="translate(-149.000000, -79.000000)">
        <g id="set-lunch-logo" transform="translate(149.000000, 79.000000)">
            <circle id="Oval-9" fill="#F8A654" cx="38.5" cy="38.5" r="38.5"></circle>
            <g id="Group-6-Copy" filter="url(#filter-1)" transform="translate(38.000000, 39.000000) rotate(1.000000) translate(-38.000000, -39.000000) translate(14.000000, 14.000000)">
                <g id="Group-5" transform="translate(-0.000000, 0.558552)" fill="url(#linearGradient-2)">
                    <path d="M30.7372715,24.9008858 C29.5853423,32.4403298 55.6679282,45.3095393 34.8190777,45.3095393 C13.9702272,45.3095393 3.43896924,44.5765789 3.43896924,23.9749218 C3.43896924,3.3732646 13.9662352,3.3732646 35.5065841,3.3732646 C51.6699455,3.3732646 42.058168,11.6599331 35.5065841,18.77762 C33.3271003,21.1454265 31.0248207,23.0188598 30.7372715,24.9008858 Z" id="Oval-6-Copy" transform="translate(23.908142, 24.341402) rotate(-10.000000) translate(-23.908142, -24.341402) "></path>
                </g>
                <path d="M17.5954736,44.8832484 C8.19439609,43.1967995 3.46145405,38.3432642 3.46145405,24.4410475 C3.46145405,3.84186249 13.8486543,3.84186249 35.102408,3.84186249 C50.0875159,3.84186249 42.9591845,10.6649866 41.7151417,12.2038539 C40.4710989,13.7427212 39.4563872,15.1570825 35.102408,20.0790204 C31.1230328,24.9158683 27.5400699,29.6778369 24.3535192,34.3649263 C21.6654281,38.3188328 19.4127462,41.8249401 17.5954736,44.8832484 Z" id="Oval-6" fill="#FFFFFF" transform="translate(23.978841, 24.362555) rotate(-10.000000) translate(-23.978841, -24.362555) "></path>
                <ellipse id="Oval-7" fill="#F7A654" transform="translate(27.261623, 12.050140) rotate(-10.000000) translate(-27.261623, -12.050140) " cx="27.2616231" cy="12.0501397" rx="1.64139097" ry="1.64165544"></ellipse>
            </g>
        </g>
    </g>
</svg>